<?xml version="1.0" standalone="no"?><!DOCTYPE svg PUBLIC "-//W3C//DTD SVG 1.1//EN" "http://www.w3.org/Graphics/SVG/1.1/DTD/svg11.dtd"><svg t="1751296391638" class="icon" viewBox="0 0 1024 1024" version="1.1" xmlns="http://www.w3.org/2000/svg" p-id="8091" xmlns:xlink="http://www.w3.org/1999/xlink" width="200" height="200"><path d="M493.718588 134.415059a26.352941 26.352941 0 0 1 41.592471 0l122.970353 158.117647a26.352941 26.352941 0 0 1 5.089882 21.142588l-81.829647 425.441882h55.958588a26.352941 26.352941 0 0 1 3.312941 52.525177l-3.312941 0.210823-96.647529-0.030117v79.088941a26.352941 26.352941 0 0 1-52.495059 3.312941l-0.210823-3.312941V791.792941H391.529412a26.352941 26.352941 0 0 1-3.312941-52.495059l3.312941-0.180706 55.92847-0.030117-81.799529-425.441883a26.352941 26.352941 0 0 1 2.981647-18.010352l2.108235-3.132236z" fill="#000000" p-id="8092"></path></svg>