<?xml version="1.0" standalone="no"?><!DOCTYPE svg PUBLIC "-//W3C//DTD SVG 1.1//EN" "http://www.w3.org/Graphics/SVG/1.1/DTD/svg11.dtd"><svg t="1751381790045" class="icon" viewBox="0 0 1024 1024" version="1.1" xmlns="http://www.w3.org/2000/svg" p-id="11626" xmlns:xlink="http://www.w3.org/1999/xlink" width="200" height="200"><path d="M346.511829 679.95700601h273.795638l73.430609-73.43060901c-34.63809799-15.50261699-66.95619801-27.803997-66.95619801-27.80399701-66.110928 66.110928-125.675507 68.34100199-141.33998398 67.65759201v-0.305736s-0.70139399 0.08992199-2.01426101 0.197829-1.996277-0.197829-1.996277-0.197829v0.305736c-15.664477 0.70139399-75.247041-1.546665-141.339984-67.65759201 0 0-32.37205399 12.30138-66.97418199 27.80399701zM700.158533 610.28515201l-74.491693 74.49169299a289.945695 289.945695 0 0 0 50.608311 94.95802501c34.27840799 42.69514199 96.68453401 93.321437 200.67076501 96.34282899-25.987565-69.887667-86.325477-202.810917-103.051038-223.43911-9.98138299-12.229443-43.054832-29.296709-75.33696301-43.93607zM290.598099 779.73486999a290.12554 290.12554 0 0 0 50.51838799-94.95802499l-74.43773899-74.45572401 1.69054-1.67255599c-32.37205399 14.657347-65.481471 31.742597-75.534792 43.990024-16.797499 20.62819201-77.08145701 153.55144199-103.06902201 223.43911 104.148091-3.021392 166.536232-53.647687 200.83262501-96.34282901zM949.83699001 320.285504c-6.726193-33.90073399-15.91626-67.297903-23.811444-100.96483901a71.66813001 71.66813001 0 0 1-2.15813702-15.84432198c-0.197829-30.24988599-0.39565801-60.517756 0-90.76764201 0.16186-9.603709-2.66170201-16.707577-10.79068399-21.70726101h-8.992238c-8.992237 3.77674-11.45610998 10.790685-11.348203 20.17858001 0.34170499 30.86135798 0.197829 61.722716 0 92.58407401a46.16614599 46.16614599 0 0 1-1.798447 13.236573c-12.121536 39.439952-22.120903 79.293547-27.08461899 120.38807199-5.75503201 47.802733 2.769609 92.74593401 24.62074598 135.477045a36.72429701 36.72429701 0 0 1 4.13642902 15.98819801q0.323721 179.32319399 0.16185999 358.64638699v62.22628102c0 8.56061001 0.107907 16.186027 0 23.79345999v68.01728199l0.21581399 0.16186001a133.08510998 133.08510998 0 0 1 11.00649801 11.905722h8.99223701c8.03905999-5.035653 10.790685-12.103551 10.79068498-21.70726101q-0.34170499-251.20713801 0-502.39629a40.42909801 40.42909801 0 0 1 4.226351-17.696723c24.83655901-48.090484 32.300116-98.752749 21.83315202-151.519196zM338.724552 305.736064c2.751625-12.175489 4.082476-23.379817 7.841231-33.864765 18.55997801-51.435597 52.15497599-88.55555201 105.62281801-104.22002899 40.96863301-11.959675 78.160525-1.025115 111.14405099 24.29702499 32.01236401 24.584776 53.054199 56.723032 61.470933 96.57662701 1.097053 5.16154399 1.510696 10.46696401 2.46387299 17.40897099-6.959992-2.01426098-12.768977-3.453019-18.39811699-5.395342-23.07408098-7.787277-42.443359-22.102919-62.24426599-35.645228-17.53486201-11.99564401-35.71716601-22.948189-56.95683001-26.617022-6.67224-1.15100601-14.207735 0.21581401-20.91594299 2.03224501-20.915944 5.665109-38.684604 17.624785-56.20148301 29.872212-20.39439399 14.261688-41.18444601 27.750044-65.805191 33.79282699-1.942323 0.52154999-3.830693 0.899224-8.021076 1.762479z" fill="#2c2c2c" p-id="11627"></path><path d="M631.763577 314.62039401c-1.798447 13.830061-3.596895 26.976712-5.64712501 41.67002699a1249.920967 1249.920967 0 0 0-285.305701 0l-5.68309399-41.36429101c8.596579-2.373951 16.959359-4.298289 25.178264-6.977976 24.17113399-7.931153 44.331729-23.002143 64.99589-37.119955 16.85145198-11.510064 34.35034601-21.90509001 54.85264701-25.17826399 5.125575-0.809301 10.790685 0.647441 16.042151 2.08619901 19.890829 5.52123402 36.796235 16.833468 53.44985799 28.54136099 21.40152401 15.01703599 43.270645 29.152833 69.204257 35.28553799 4.064491 1.06108401 8.21890499 1.97829201 12.912853 3.05736102z m-120.99954301-19.18943401a27.336401 27.336401 0 1 0-27.37237 27.21050999 26.976712 26.976712 0 0 0 27.37237-27.21050999zM344.911211 387.54743801l23.181988-2.26604402c6.15068999 29.008957 12.06758201 57.945976 41.36429099 73.62843801-13.452387 38.360884-13.146651 76.16424902 0.41364301 115.100636-4.31627401-0.323721-7.859215 0-10.952545-0.917209-27.67810599-8.812392-48.55808099-25.178264-57.910008-53.70164a39.565844 39.565844 0 0 1-1.960307-13.955952c1.798447-39.09824699 3.86666199-78.106572 5.862938-117.88822899zM557.074055 573.57884c13.34448001-38.43282201 13.776107-76.03835801 0.341705-114.489164 28.90105001-15.610524 35.285539-44.259791 41.36429099-73.73634399l22.71439103 2.17612099c0.52154999 0.84527001 0.881239 1.168991 0.89922399 1.52868 1.798447 35.10569401 3.25518999 70.247357 5.71906298 105.317082 1.97829201 28.12771801-9.963399 48.665988-31.83251999 64.744108-9.33394199 6.870069-18.955636 13.038744-30.771436 14.49548601a79.23959402 79.23959402 0 0 1-8.434718-0.03596901zM470.60470201 4.819839c1.798447 4.136429 3.596895 8.182936 5.98883 13.686185 0.75534799-7.085883 1.330851-12.58913199 1.94232399-18.506024l9.78355401 2.78759401v37.641504h0.68341001l2.51782599-35.968948 17.57083099 5.88092299c-0.52154999 8.12898201-1.06108401 16.43780999-1.600618 24.746636l0.791317 0.215814 6.708209-23.91935099 18.308195 8.16495199c-4.31627401 12.229443-8.34479599 23.667568-12.37331801 35.12367801l1.11503702 0.41364299 10.93455999-14.621378 1.097053 0.70139501a39.94351799 39.94351799 0 0 1-2.086199 3.794724 100.874917 100.874917 0 0 0-19.13548 58.73729299c0 7.19378999-2.104183 13.72215401-8.39875 18.14633502-12.265412-8.057045-33.30724601-8.182936-45.24893699-0.26976702a16.869437 16.869437 0 0 1-8.182936-13.66820099c-0.917208-8.362781-0.70139399-17.013313-2.84154701-25.034388-2.266044-8.524641-6.708209-16.491763-10.03533699-24.33299401l5.17952899 4.532088 1.133022-0.37767399c-3.471004-9.62169401-6.90603799-19.261372-10.41301099-28.77515901-1.58263401-4.31627401-3.309143-8.596579-4.711932-12.247427 1.168991-1.312867 1.258913-1.52868 1.420773-1.56465001 5.53921799-1.402789 11.635955-4.801855 16.473779-3.48898798 3.72278601 1.007131 5.84495401 7.913169 8.99223699 12.67905499 0-4.118445 0.23379799-8.25487399 0-12.33735a5.898908 5.898908 0 0 1 4.46014999-6.88805299A90.551828 90.551828 0 0 0 470.60470201 4.819839z" fill="#2c2c2c" p-id="11628"></path><path d="M626.548079 364.83304599v15.52060201a1200.31978602 1200.31978602 0 0 0-286.38476902 0.23379799v-15.7544c95.515543-10.53890199 190.635428-11.29424999 286.38476902 0zM464.36408999 153.71330199a169.62956201 169.62956201 0 0 1 0.21581301-17.98447399 8.992237 8.992237 0 0 1 4.47813499-6.240613 32.47996101 32.47996101 0 0 1 25.69981301 0.125892 7.82324601 7.82324601 0 0 1 4.20836699 5.26945101c0.52154999 6.27658201 0.197829 12.58913199 0.19783001 18.81176zM330.45169401 333.57602999c1.079068 12.229443 2.122168 24.20710199 3.219221 36.65235901-11.36618802-6.942007-13.218589-29.476553-3.219221-36.65235899zM633.436133 370.803892c0.431627-7.19378999 0.66542599-13.25455799 1.222944-19.33331001s1.384805-11.76184601 2.104184-17.71470699c9.33394199 7.013945 7.94913799 27.426323-3.327128 37.048017zM503.35442999 295.682743a19.94478201 19.94478201 0 1 1-19.36927899-20.412379 19.603077 19.603077 0 0 1 19.36927899 20.412379z" fill="#2c2c2c" p-id="11629"></path><path d="M605.380353 364.743124l-2.823562-1.348835H360.62964199c-12.35533399 3.36309699-15.736415 13.002775-16.49176299 24.584776a178.046296 178.046296 0 0 0 0.26976701 33.774843c2.28402801 18.074397 8.27285799 34.584144 27.40833899 40.051424 6.474411 1.798447 8.668517 5.557203 10.07130501 11.88773799 5.52123402 25.052373 15.19688097 48.25234501 31.09515699 68.01728201 31.32895399 38.91840199 79.905019 52.622572 123.391478 14.13579599 24.818575-21.977028 37.479645-51.47156599 44.961186-83.73571198 1.27689801-5.503249 3.345112-8.452703 8.77642298-9.83750802 11.90572201-3.057361 19.78292201-11.38417199 23.93733603-23.37981599a103.284836 103.284836 0 0 0 2.8955-59.168921c-1.29488201-5.647125-6.45642601-12.571148-11.56401701-14.981067zM256.805271 823.976676c-38.181039 31.113141-93.03368601 57.748147-169.53963901 59.34876599-5.39534201 14.78323801-8.74045501 26.02353401-9.33394198 31.63469003-3.291159 31.14910999-27.31841699 109.03986801 24.80058999 109.03986798h154.072991zM888.923576 914.942148c-0.593488-5.61115599-4.01053801-16.85145198-9.333943-31.634691-76.50595401-1.58263401-131.286663-28.21764-169.52165501-59.348765v200.023324h154.072992c52.119007 0 28.07376398-77.89075801 24.78260601-109.039868zM281.264157 983.858653v40.123363h404.344936v-40.123363zM685.609093 976.107345v-174.773122c-5.53921799-5.82697001-10.57487101-11.635955-15.12494301-17.31904901-34.72802-43.30661401-48.55808099-86.019741-51.61544099-96.864378H348.004541c-3.11131402 10.790685-16.90540599 53.557765-51.615442 96.864378-4.550072 5.68309399-9.585725 11.492079-15.124942 17.31904901v174.773122z m-129.901858-210.76005501a13.830061 13.830061 0 1 1-13.83006099 13.812076 13.81207601 13.81207601 0 0 1 13.83006099-13.812076z m0 76.39804701a13.830061 13.830061 0 1 1-13.83006099 13.81207601 13.81207601 13.81207601 0 0 1 13.83006099-13.884014z m-160.97903-76.39804701a13.830061 13.830061 0 1 1-13.83006099 13.812076 13.81207601 13.81207601 0 0 1 13.83006099-13.812076z m0 76.39804701a13.830061 13.830061 0 1 1-13.83006099 13.81207601 13.81207601 13.81207601 0 0 1 13.83006099-13.884014z" fill="#2c2c2c" p-id="11630"></path></svg>