<?xml version="1.0" standalone="no"?><!DOCTYPE svg PUBLIC "-//W3C//DTD SVG 1.1//EN" "http://www.w3.org/Graphics/SVG/1.1/DTD/svg11.dtd"><svg t="1753011397004" class="icon" viewBox="0 0 1027 1024" version="1.1" xmlns="http://www.w3.org/2000/svg" p-id="11079" xmlns:xlink="http://www.w3.org/1999/xlink" width="200.5859375" height="200"><path d="M32 657.872l58.288 197.104H56l37.712 38.032q4.288-10.368 13.712-20.752 9.44-10.368 27.44-13.824L32 657.872z" fill="#F6E065" p-id="11080"></path><path d="M162.304 561.056l144 221.296 401.12-34.576 37.728-262.8 37.712-89.92-54.848 31.136 61.712-107.2-150.864 107.2L409.152 654.4l-240-259.36 72 145.248-65.136-34.576 27.424 65.696-41.136-10.368z" fill="#FDFD83" p-id="11081"></path><path d="M113.36 606.224q69.44 105.344 62.512 198.288l86.816 105.344q364.656 9.296 479.264-68.16Q856.56 764.24 992 671.296q-135.44-21.696-163.232-65.072-27.776-43.376 90.304-145.632-180.592 55.776-253.52 30.992-11.168-3.808-17.696-11.52-36.096-42.704 69.792-205.376-104.192 99.152-177.12 99.152-72.944 0-131.968-309.84-38.208 368.704-66 378-27.776 9.296-79.872-61.968 55.568 176.608 17.36 226.192c-38.192 49.568-104.176 43.36-166.688 0z" fill="#FEDE67" p-id="11082"></path><path d="M290.336 757.168c-130.272-13.648-107.456 126.096-49.04 151.12q60.496 25.92 254.752 16.208 115.328 6.576 198.448-4.8c83.12-11.408 116.848-27.6 132.768-102.128 14.304-66.992-51.152-60.672-71.472-58.704-2.288 0.224-4 0.384-4.96 0.384-2.784 0-0.448-4.384 3.728-12.192 10.16-19.04 31.2-58.496 15.376-104.448-18.448-53.632-91.456-36.24-123.28-28.64-6.624 1.568-11.456 2.72-13.648 2.72-12.736 0-19.104-194.4-156.048-194.4-113.312 0-132.848 139.776-123.6 197.168 1.232 7.648-7.632 23.472-15.344 24.176-91.728 8.48-59.296 67.2-40.624 101.056l0.736 1.328c3.088 5.6-1.44 11.824-7.792 11.152z" fill="#FF6C0F" p-id="11083"></path><path d="M496.016 932.496q115.84 6.592 199.568-4.896 34.096-4.672 54.672-10.496 24.544-6.976 40.464-18.288 32.256-22.928 44.368-79.584 10.608-49.68-27.712-64.352-16.896-6.464-45.504-4.544 13.12-24.704 17.872-43.456 8.8-34.784-2.24-66.88-13.696-39.792-63.728-42.672-25.712-1.472-68.96 8.848-5.28 1.248-8.224 1.888l-0.4-1.2q-1.44-4.416-5.056-18.992-7.632-30.8-13.888-49.328-11.104-32.88-25.888-56.736-41.872-67.52-114.4-67.52-42.592 0-73.392 24.48-26.144 20.768-41.728 57.44-12.96 30.48-16.96 67.36-3.472 32 0.592 57.168 0.48 3.072-3.264 9.28-3.344 5.504-4.928 5.648-66.8 6.176-68.96 48.576-0.768 14.928 7.232 34.592 4.416 10.832 14.848 29.712l0.336 0.64q-48.448-4.976-76.064 15.952-24.528 18.592-27.584 52.384-2.688 29.792 11.776 58.304 14.88 29.376 39.28 39.824Q300.288 942.272 496 932.48z m285.44-46.72q-24.272 17.248-88.048 25.984-82.352 11.28-196.896 4.752l-0.432-0.032-0.432 0.016q-192.4 9.632-251.2-15.552-19.04-8.16-31.312-32.352-12.384-24.416-10.112-49.648 2.4-26.736 21.312-41.056 22.704-17.216 65.168-12.752 9.44 0.976 14.8-6.56 5.568-7.84 0.832-16.416l-0.736-1.344q-9.968-18.064-14.032-28.016-6.656-16.368-6.08-27.744 1.456-28.56 54.464-33.44 9.616-0.896 17.136-13.328 6.8-11.232 5.376-20.096-3.712-23.04-0.48-52.896 3.76-34.528 15.776-62.816 30.672-72.192 100.4-72.192 63.616 0 100.8 59.952 13.824 22.288 24.336 53.44 6.048 17.888 13.504 48.032 3.76 15.152 5.376 20.112 4.208 12.864 12.032 12.864 3.136 0 15.52-2.944 40.96-9.76 64.32-8.432 39.328 2.24 49.52 31.904 9.504 27.584 1.856 57.76-4.32 17.024-16.72 40.32-3.984 7.44-4.928 10.032-1.36 3.728-0.768 6.688 1.44 7.232 9.024 7.232 1.344 0 5.728-0.416 29.744-2.88 45.104 2.992 25.536 9.776 17.76 46.08-10.784 50.56-37.984 69.872z" fill="#FDFC80" p-id="11084"></path><path d="M231.808 814.48c-34.32 55.312-3.376 86.448 41.152 100.272q44.528 13.84 171.424 6.912 260.56-13.824 284.56-24.192c24-10.384 54.848-69.168 34.288-107.2-14.288-26.416-41.808-24.48-60.736-23.152-8.32 0.592-14.992 1.056-18.128-1.056-3.328-2.24-0.192-12.416 3.936-25.888 8.64-28.176 21.696-70.72-10.8-84.768-36.656-15.84-69.328 12.688-85.76 27.04-5.088 4.448-8.608 7.536-10.24 7.536-1.552 0-4.896-7.008-9.984-17.664-17.232-36.096-54.432-114.032-110.016-103.36-55.088 10.592-49.952 94.08-47.584 132.672 0.736 11.84 1.2 19.472-0.416 19.472-1.504 0-4.688-2.512-9.12-6.048-15.712-12.448-47.2-37.44-76.592-7.776-26.624 26.848 1.44 76.128 16.64 102.768 6.304 11.088 10.4 18.256 7.36 18.256-2.304 0-7.888-3.472-15.536-8.24-26.496-16.512-77.808-48.512-104.448-5.6z" fill="#E34110" p-id="11085"></path><path d="M278.864 858.432l70.416 76.848h203.392q122.032 0 195.248-16.288l45.216-74.4q-88.272 48.416-107.456 34.592-19.2-13.84 11.52-86.448-53.744 41.488-80.608 41.488-26.864 0-84.432-155.6-42.208 165.968-65.248 172.896-23.024 6.912-76.752-58.784-3.84 65.696-23.04 72.608-19.184 6.912-88.256-6.912z" fill="#FDDF67" p-id="11086"></path><path d="M889.136 851.52q18.864 3.456 34.288 13.824 15.44 10.384 24 20.752l27.44-48.416-41.152 10.384L992 768.528l-102.864 82.992z" fill="#F6E065" p-id="11087"></path></svg>