<?xml version="1.0" standalone="no"?><!DOCTYPE svg PUBLIC "-//W3C//DTD SVG 1.1//EN" "http://www.w3.org/Graphics/SVG/1.1/DTD/svg11.dtd"><svg fill="#666666" t="1751202745547" class="icon" viewBox="0 0 1024 1024" version="1.1" xmlns="http://www.w3.org/2000/svg" p-id="6515" xmlns:xlink="http://www.w3.org/1999/xlink" width="200" height="200"><path d="M1007.616 562.176c4.608 0.512 8.704 2.56 11.264 5.632 1.536 1.536 3.072 3.584 3.584 5.632 1.024 2.048 1.024 4.096 1.024 6.656 0 2.048-0.512 4.608-1.536 6.656-1.024 2.048-2.048 4.096-4.096 5.632-39.936 37.888-117.76 22.528-117.76 22.528h-130.048V911.36h-161.792v-84.48c0-27.136-10.752-52.736-30.208-71.68-19.456-18.944-45.568-29.696-73.216-29.696s-53.76 10.752-73.216 29.696c-19.456 18.944-30.208 45.056-30.208 71.68V911.36H240.128v-296.96H123.392s-77.824 15.36-117.76-22.528c-1.536-1.536-3.072-3.584-4.096-5.632-1.024-2.048-1.536-4.096-1.536-6.656 0-2.048 0.512-4.608 1.024-6.656 1.024-2.048 2.048-4.096 3.584-5.632 3.072-3.072 7.168-5.12 11.264-5.632 4.608-0.512 8.704 1.024 12.288 3.584 15.36 12.288 34.304 18.944 53.76 19.968 76.288 0.512 115.2-157.696 115.2-157.696H281.6V351.744c-53.76 0.512-97.792 1.536-107.52 3.584-40.96 9.216-81.92-12.288-111.616-43.52-3.072-3.072-4.608-7.168-4.096-11.264 0-4.096 2.048-8.192 5.12-11.264 2.56-2.56 6.144-4.096 10.24-4.608 3.584 0 7.68 1.024 10.752 3.072 18.944 13.824 56.832 39.936 88.576 38.912C222.208 325.12 279.04 184.32 279.04 184.32s7.68-42.496 0-59.904c-7.68-17.92 29.696-14.336 38.912 10.752 8.192 23.04 24.064 22.016 35.84 20.992h3.584c9.216-0.512 97.28-1.536 143.872-1.536h28.16c35.84 0.512 93.696 1.024 102.4 1.536h3.072c11.776 1.024 27.648 2.048 35.84-20.992 9.216-25.6 46.592-29.184 38.912-10.752s0 59.904 0 59.904 56.832 140.8 105.984 142.336c31.232 1.024 70.144-25.088 88.576-38.912 3.072-2.048 6.656-3.584 10.752-3.072 3.584 0 7.68 1.536 10.24 4.608 3.072 3.072 5.12 6.656 5.12 11.264 0 4.096-1.536 8.192-4.096 11.264-29.696 31.232-70.656 52.224-111.616 44.032-10.24-2.048-51.2-3.072-100.352-3.584v76.288h113.152s38.912 157.696 115.2 157.696c19.456-0.512 38.4-7.68 53.76-19.968 2.56-3.072 6.656-4.096 11.264-4.096z m-331.264-134.144V351.744c-55.296 0-113.664 0-147.456 0.512h-28.16c-39.424-0.512-113.152-0.512-181.248-0.512v76.288h356.864zM276.48 665.088h452.096c5.12 0 9.728-2.048 13.312-5.632 3.584-3.584 5.632-8.192 5.632-12.8 0-5.12-2.048-9.728-5.632-12.8-3.584-3.584-8.192-5.632-13.312-5.632H276.48c-5.12 0-9.728 2.048-13.312 5.632-3.584 3.584-5.632 8.192-5.632 12.8 0 5.12 2.048 9.728 5.632 12.8s8.704 5.632 13.312 5.632z" p-id="6516"></path></svg>