<?xml version="1.0" standalone="no"?><!DOCTYPE svg PUBLIC "-//W3C//DTD SVG 1.1//EN" "http://www.w3.org/Graphics/SVG/1.1/DTD/svg11.dtd"><svg t="1752062817870" class="icon" viewBox="0 0 1024 1024" version="1.1" xmlns="http://www.w3.org/2000/svg" p-id="7673" xmlns:xlink="http://www.w3.org/1999/xlink" width="200" height="200"><path d="M831.488 312.832c-32.768 13.312-68.608 21.504-96.768 40.96-54.272 36.352-115.712 57.856-172.544 88.064-11.264 6.144-22.528 17.92-38.4 10.752-2.048-1.024-11.776 7.68-11.776 11.776 0 9.728 1.536 20.48 6.656 28.672 12.8 21.504 27.648 41.984 41.984 62.976 0 0.512 0 1.536-0.512 2.56-24.064 30.72-27.136 30.72-50.688 1.536-9.728-12.288-18.944-24.576-29.184-37.376-11.264 4.608-22.528 8.704-33.28 14.336-4.096 2.048-7.68 7.168-8.704 11.776-2.048 8.704-2.048 17.92-2.048 26.624 0 26.624-3.584 29.184-36.864 22.528 3.584-1.536 7.68-2.56 10.752-5.12 20.992-16.896 22.016-41.472 2.048-60.416-13.312-12.8-27.648-24.576-38.4-33.792 1.024-16.896 1.024-29.696 3.584-43.008 1.024-6.144 5.632-14.848 10.752-16.896 31.744-12.8 64-23.552 96.768-35.328 3.072 4.096 5.632 8.192 8.192 11.776 5.632 9.728 11.776 5.12 17.408 0.512 6.144-4.608 11.264-11.264 17.92-13.824 56.32-22.016 112.64-44.032 169.472-64.512 40.96-14.848 82.432-28.16 125.44-42.496 1.536 2.048 4.608 6.144 7.68 10.752 0.512 2.56 0.512 5.12 0.512 7.168zM395.264 458.752c1.024 2.048 2.048 4.608 3.072 6.656 25.6-9.728 51.712-19.968 77.312-29.696-1.024-2.048-1.536-4.096-2.56-6.656-26.112 9.728-51.712 19.456-77.824 29.696zM198.144 568.832c26.112-11.264 52.736-21.504 78.336-34.304 12.288-6.144 20.48-4.608 29.696 4.608 12.8 12.8 26.624 24.064 42.496 38.4-24.064 25.088-46.08 50.688-70.144 73.216-18.432 17.408-27.136 14.848-41.472-6.656-13.824-22.016-26.112-45.056-39.424-67.584 0.512-3.072 0.512-5.632 0.512-7.68z" p-id="7674" fill="#d81e06"></path><path d="M396.8 609.792c28.16 5.632 33.792 4.096 43.52-4.608 7.68-7.168 5.12-26.112 7.68-41.984 15.36 0 31.744-0.512 47.616 0.512 3.584 0 7.68 3.072 10.24 5.632 26.624 26.112 26.624 26.112 56.32 4.096 6.144 59.904 26.624 237.568 35.84 321.024 3.072 24.576-14.336 47.104-38.912 50.688-27.648 4.096-53.248-15.872-55.808-43.52-7.68-81.92-22.528-238.592-28.16-289.28h-35.84c-2.56 23.04-19.968 204.288-28.16 292.864-2.56 26.112-26.112 45.056-52.224 41.984-27.648-3.584-47.616-29.184-44.032-56.832 11.264-91.648 33.792-278.528 36.864-308.736 15.872 14.848 15.872 17.92 45.056 28.16" p-id="7675" fill="#d81e06"></path><path d="M343.552 327.68c23.04 29.184 31.744 67.072 16.896 89.088-1.536-9.728-2.56-16.896-4.096-26.624-20.48 17.92-31.744 39.424-38.4 63.488-1.024 3.584 4.096 10.752 7.68 13.824 25.6 23.04 51.2 45.056 76.8 67.584 17.408 15.36 20.48 32.768 7.68 46.592-12.288 13.312-28.672 12.288-46.08-2.56-32.256-27.648-64.512-55.296-95.744-83.968-6.656-6.144-12.8-16.896-13.312-25.6-1.536-46.08 45.056-120.32 88.576-141.824zM457.216 294.4c-40.96 0-77.312-31.232-81.408-71.68-0.512-4.608 1.536-11.264 4.608-13.312 3.072-2.048 10.24-1.536 13.824 0.512 41.472 20.48 82.944 19.968 124.416 0.512 4.096-2.048 11.264-3.072 13.824-1.024 3.584 3.072 5.632 10.24 4.608 14.848-5.12 40.448-39.424 70.144-79.872 70.144zM580.608 442.88c42.496-20.48 84.48-40.96 132.608-64-3.584 12.288-4.096 21.504-8.192 28.16-20.48 30.72-42.496 60.928-64 91.136-8.192 11.264-19.456 16.384-32.768 12.8-13.312-4.096-19.968-14.336-21.504-28.16-1.536-12.8-4.096-25.088-6.144-39.936zM517.632 469.504c16.384-5.632 28.672-10.24 41.984-14.848V532.48c-1.536 0.512-3.072 1.024-4.096 1.536-15.36-20.992-32.768-40.96-37.888-64.512zM456.192 358.912c-12.8-17.92-24.064-33.792-36.864-51.712h75.264c-12.8 17.408-25.088 33.792-38.4 51.712zM477.184 532.48c5.632 7.168 30.72 38.912 36.352 46.592-16.384 0-52.224-10.24-66.56-10.24-0.512-1.536-0.512-19.456-1.024-20.992 9.728-4.608 19.456-9.728 31.232-15.36zM456.704 181.248c40.448 0 76.288 10.24 98.816 26.112 0.512-5.632 1.024-11.776 1.024-17.408 0-65.024-45.056-112.64-100.352-112.64s-100.352 47.616-100.352 112.64c0 6.144 0.512 11.776 1.024 17.408 24.064-15.872 59.392-26.112 99.84-26.112z" p-id="7676" fill="#d81e06"></path><path d="M363.008 424.448c-12.288 5.632-15.36 49.664-5.632 59.392 0.512-10.24 1.024-19.968 2.56-30.208 1.536-7.68 7.168-23.552 19.968-28.16 18.944-7.68 38.4-14.848 57.856-21.504 0.512-1.024 0.512-1.536 1.024-2.56 3.584-11.264 5.12-23.552 8.192-39.936-8.704-12.288-20.48-29.696-33.28-46.08-2.048-3.072-7.168-6.144-10.24-5.632-17.408 2.048-34.304 5.632-47.104 7.68 7.68 29.696 14.336 55.296 19.968 81.408 2.56 10.752-1.024 19.968-13.312 25.6zM453.12 399.36c8.192-3.072 16.384-5.632 24.576-8.704l11.264-4.096 6.656 9.728c1.024 1.536 2.048 2.56 2.56 3.584 1.024 1.024 2.048 2.56 2.56 3.584 1.024-1.024 2.048-1.536 3.072-2.56 4.608-4.096 9.728-9.216 17.408-12.288 5.632-2.048 10.752-4.096 16.384-6.656 7.68-19.968 14.336-40.96 22.016-64-8.192-2.56-18.432-6.144-29.184-8.704-16.384-3.584-29.184-1.536-38.912 15.36-10.24 17.408-24.576 32.256-35.328 49.664-5.12 7.68-6.656 17.408-9.728 26.624 1.536 0 4.096-1.024 6.656-1.536zM600.064 358.912c-10.752-11.776-19.968-22.016-32.256-35.84-8.704 22.016-15.36 39.424-22.528 56.832 17.92-7.168 36.352-13.824 54.784-20.992z" p-id="7677" fill="#d81e06"></path></svg>